<?xml version="1.0" ?><svg id="Layer_9" style="enable-background:new 0 0 512 512;" version="1.1" viewBox="0 0 512 512" xml:space="preserve" xmlns="http://www.w3.org/2000/svg" xmlns:xlink="http://www.w3.org/1999/xlink"><style type="text/css">
	.st0{fill:#F7931E;}
	.st1{fill:#F15A24;}
	.st2{fill:none;stroke:#FFFFFF;stroke-width:18;stroke-linecap:round;stroke-miterlimit:10;}
	.st3{fill:#8CC63F;}
	.st4{fill:#D9E021;}
	.st5{fill:#39B54A;}
</style><g><path class="st0" d="M4.1,463.4c-13,17.8,7.7,39.9,26.3,28.2l313.7-197.1c26.7-16.8,31.7-53.6,10.2-75.8l-57.9-60   c-21-21.7-56.9-18.7-75.1,6.2L4.1,463.4z"/><path class="st1" d="M256.9,255.5c-35.3-36.5-49.2-63.3-48.9-69.9c1.1-1.4,1.6-3,1.7-4.7L195.8,200c1.8,4.3,4.4,9.1,7.7,14.4   c9.6,15.6,24.5,34.1,42,52.2c3,3.1,8,3.1,11.2,0.1C259.8,263.6,259.9,258.6,256.9,255.5z"/><path class="st2" d="M252.3,179c10.7-3.5,23-1.4,32.1,6.6l0,0"/><line class="st2" x1="189.7" x2="226.6" y1="250.1" y2="201.8"/><path class="st1" d="M268.7,341.9c-12.4-7.3-31.4-21.9-54.2-45.4c-3-3.1-8-3.1-11.2-0.1s-3.3,8.1-0.3,11.2   c17.4,18,35.4,33.6,50.7,43.7L268.7,341.9z"/><path class="st1" d="M172.1,337.5c-19.5-20.2-32.4-37.4-40.1-49.8l-10.1,13.9c9.6,14.5,23.1,31,38.7,47.1c3,3.1,8,3.1,11.2,0.1   C175,345.6,175.1,340.6,172.1,337.5z"/><path class="st1" d="M162.4,408.7c-9.6-7.7-20.6-17.7-32.7-30.2c-3-3.1-8-3.1-11.2-0.1s-3.3,8.1-0.3,11.2c10,10.4,20.2,19.9,30,28   L162.4,408.7z"/><path class="st1" d="M87.3,419.5c-11.5-11.9-20.6-22.7-27.8-32.1l-9.8,13.4c7.6,9.7,16.5,19.8,26.1,29.8c3,3.1,8,3.1,11.2,0.1   C90.1,427.6,90.3,422.6,87.3,419.5z"/><path class="st1" d="M58.5,474c-4.4-4.1-8.9-8.6-13.7-13.5c-3-3.1-8-3.1-11.2-0.1c-3.2,3.1-3.3,8.1-0.3,11.2   c3.7,3.8,7.5,7.6,11.2,11.2L58.5,474z"/><path class="st3" d="M320.1,190.4c-1.3-2.5-0.2-5.5,2.4-6.7c23.2-10.5,111-46.7,167.7,14.3c60.5,65.1-20,96.2-56.6,70.9   c-35.8-24.7-64.4-78.2-109-76.1C322.6,192.9,320.9,192,320.1,190.4L320.1,190.4z"/><path class="st4" d="M321.2,191.6c2.1,1.1,5.1-0.1,6.4-2.5c12.2-21.8,55.3-104.4,5.3-153.8c-53.3-52.7-90.8,22.9-71.6,55.5   c18.8,31.8,64.9,55.7,58.1,96.9C319.1,189.3,319.8,190.9,321.2,191.6L321.2,191.6z"/><path class="st5" d="M319.6,189.8c0.9,2,3.6,2.9,5.9,1.9C346.5,183,424,148.2,417.7,84c-6.7-68.5-76.3-35.6-81.7-1.1   c-5.2,33.7,13.1,77.3-15.4,103.1C319.4,187,319,188.5,319.6,189.8L319.6,189.8z"/></g></svg>