<?xml version="1.0" ?><!DOCTYPE svg  PUBLIC '-//W3C//DTD SVG 1.1//EN'  'http://www.w3.org/Graphics/SVG/1.1/DTD/svg11.dtd'><svg height="512px" style="enable-background:new 0 0 512 512;" version="1.1" viewBox="0 0 512 512" width="512px" xml:space="preserve" xmlns="http://www.w3.org/2000/svg" xmlns:xlink="http://www.w3.org/1999/xlink"><g id="_x37_3"><g><g><path d="M467.033,157.43c-1.225,0-2.407-0.637-3.063-1.768c-0.291-0.494-0.473-0.949-0.552-1.392     c-0.2-0.018-0.394-0.048-0.582-0.094c-1.085-0.243-1.989-0.897-2.522-1.841c-0.648-1.116-1.273-2.195,0.807-6.034     c-2.092,1.425-4.251,2.957-6.24,4.427c-1.564,1.162-3.784,0.837-4.942-0.734c-1.165-1.567-0.831-3.778,0.739-4.939     c17.405-12.89,20.462-12.259,21.771-11.986c1.152,0.24,2.104,0.922,2.681,1.919c0.716,1.247,0.612,2.802-0.267,3.936     c-0.534,0.682-1.08,1.389-1.613,2.113c3.645-2.535,4.202-2.929,5.852-2.559c0.958,0.215,1.795,0.831,2.293,1.689     c1.176,2.038,0.588,3.521-2.05,6.271c0.054,0.082,0.108,0.167,0.163,0.255c0.971,1.688,0.395,3.848-1.298,4.824l-9.418,5.439     C468.24,157.275,467.634,157.43,467.033,157.43z" style="fill:#F9AE75;"/></g><g><path d="M344.448,293.156c-0.382,0-0.745-0.036-1.091-0.114c-1.237-0.268-2.263-1.007-2.875-2.074     c-0.473-0.813-0.631-1.511-0.546-2.159c-2.22,0.703-3.954,0.879-5.318,0.582c-1.449-0.327-2.644-1.176-3.348-2.407     c-0.473-0.819-0.601-1.777-0.357-2.687c0.248-0.91,0.837-1.674,1.649-2.146c22.462-12.905,45.756-27.302,62.142-38.558     l-76.06,43.906c-1.68,0.976-3.845,0.4-4.821-1.292c-0.467-0.818-0.601-1.819-0.352-2.723c0.036-0.134,0.066-0.249,0.109-0.364     c-0.474-0.382-0.861-0.837-1.165-1.358c-0.958-1.674-0.406-3.796,1.231-4.791c29.17-17.641,71.008-43.696,95.138-60.164     c-21.007,11.992-51.959,31.438-70.007,42.769c-25.773,16.195-25.768,16.183-27.696,15.716c-0.934-0.23-1.746-0.837-2.226-1.668     c-0.739-1.285-1.14-2.547,0.091-4.566c-1.297-0.442-2.358-1.291-3.025-2.449c-0.364-0.619-0.716-1.577-0.589-2.814     c-0.83,0.473-1.559,0.892-2.177,1.249c-0.782,0.504-1.559,1.013-2.335,1.522c-0.813,0.54-1.813,0.703-2.753,0.485     c-0.946-0.225-1.753-0.831-2.244-1.674c-0.473-0.818-0.594-1.819-0.34-2.729c0.183-0.685,0.31-1.109,1.475-1.979l-0.007-0.009     c0.019-0.013,0.104-0.07,0.255-0.167c0.395-0.279,0.892-0.606,1.517-0.991c-0.504-0.31-0.916-0.734-1.22-1.25     c-0.151-0.267-0.303-0.585-0.43-0.945c-0.364-0.031-0.723-0.082-1.05-0.155c-2.311-0.519-3.518-1.877-4.117-2.926     c-0.559-0.964-1.098-2.559-0.491-4.664c0.479-1.659,1.746-3.502,3.784-5.549c-0.564-0.273-1.056-0.691-1.413-1.25     c-1.062-1.622-0.619-3.799,1-4.873c0.152-0.103,7.417-4.924,18.605-12.21c-0.928,0.148-1.722,0.148-2.371,0     c-1.298-0.297-2.358-1.059-2.989-2.156c-1.68-2.917,0.157-4.211,5.088-7.674c2.626-1.85,6.422-4.458,10.971-7.562     c1.546-1.056,3.208-2.184,4.984-3.396c-3.82,2.469-7.635,4.949-11.407,7.417c-0.813,0.534-1.813,0.709-2.753,0.485     c-0.94-0.228-1.753-0.831-2.237-1.674c-2.135-3.693,0.582-7.893,10.843-15.51c-0.261-0.203-0.491-0.446-0.691-0.728     c-1.122-1.577-0.776-3.763,0.794-4.906c0.079-0.058,5.082-3.702,12.087-8.563c0.072-0.051,0.14-0.1,0.218-0.155     c-0.424-0.291-0.782-0.679-1.043-1.134c-0.982-1.692-0.394-3.854,1.298-4.827c0.194-0.109,0.389-0.197,0.589-0.273     c2.279-1.143,18.211-10.461,27.975-16.216c0.807-0.479,1.783-0.612,2.692-0.376c0.867,0.233,1.613,0.782,2.086,1.534     c9.376-4.924,11.729-4.427,13.1-4.139c1.407,0.294,2.553,1.106,3.232,2.274c0.715,1.244,0.728,2.38,0.23,3.496     c18.277-10.246,20.716-9.667,22.353-9.275c1.165,0.276,2.117,0.973,2.687,1.962c0.091,0.161,0.176,0.331,0.237,0.5     c27.877-18.345,45.853-28.384,53.215-26.708c2.201,0.5,3.354,1.795,3.93,2.798c0.945,1.635,0.442,3.721-1.152,4.736     l-25.283,16.219c0.631,0.018,1.074,0.125,1.468,0.215c1.358,0.318,2.462,1.113,3.111,2.235c0.54,0.937,1.067,2.483,0.479,4.515     c-0.825,2.868-4.069,6.282-9.903,10.555c0.182,0.206,0.352,0.437,0.497,0.688c0.601,1.049,1.183,2.774,0.51,5.04     c-0.982,3.281-4.821,7.11-11.231,11.619c0.854,0.379,1.559,0.989,2.007,1.783c0.479,0.819,0.601,1.798,0.358,2.705     c-0.37,1.346-0.449,1.616-9.412,6.719c0.782,0.406,1.425,1.019,1.874,1.789c0.448,0.779,0.576,1.483,0.51,2.113     c4.705-2.089,7.525-2.768,9.048-2.392c1.14,0.282,2.067,0.973,2.638,1.943c1.432,2.483,0.855,4.651-5.646,9.927     c0.201,0.021,0.389,0.061,0.589,0.106c0.952,0.225,1.85,0.883,2.335,1.729c0.57,0.979,0.709,2.153,0.394,3.302     c-0.497,1.85-2.85,4.396-8.005,8.232c0.128,0.691,0.128,1.522-0.121,2.477c-0.388,1.431-1.062,3.936-9.291,10.731     c0.243,0.243,0.461,0.516,0.637,0.825c0.916,1.583,0.468,3.603-1.024,4.654c-6.998,4.931-14.979,10.562-22.947,16.201     c0.594,0.354,1.079,0.853,1.431,1.462c0.977,1.691,0.4,3.851-1.291,4.827c-0.898,0.515-1.929,0.594-2.845,0.303     c-3.099,1.177-11.959,7.489-18.551,12.171C354.2,289.336,348.215,293.156,344.448,293.156z M338.312,245.527     c-9.988,6.289-18.248,11.868-22.669,15.676c1.268-0.542,2.729-1.255,4.336-2.116c7.029-5.148,17.963-12.35,34.725-22.762     C349.585,239.224,344.127,242.289,338.312,245.527z M357.899,213.999c-13.275,7.077-26.138,14.057-36.483,20.204     c-15.798,9.381-20.88,13.984-22.492,16.062c0.121-0.019,0.26-0.04,0.399-0.067c5.131-5.74,18.399-13.369,41.978-25.492     c3.457-2.265,6.992-4.557,10.546-6.847C353.939,216.521,355.953,215.239,357.899,213.999z M374.128,195.399l-18.018,11.559     c4.051-2.159,8.271-4.397,12.656-6.716c17.478-9.251,35.55-18.818,49.067-26.814c11.564-6.843,17.21-11.031,19.951-13.514     C427.591,163.601,403.364,177.403,374.128,195.399z M417.354,183.892c0.285,0.042,0.521,0.094,0.746,0.146     c0.048,0.009,0.091,0.018,0.14,0.03c3.911-2.493,6.677-4.476,8.617-6.037C424.201,179.559,420.963,181.561,417.354,183.892z      M337.941,174.823c1.219,0,2.401,0.637,3.057,1.768c-0.892-1.55-2.65-2.022-3.96-1.646     C337.335,174.865,337.639,174.823,337.941,174.823z M428.549,152.105c-3.475,2.187-7.095,4.509-10.813,6.935L428.549,152.105z" style="fill:#F9AE75;"/></g><g><path d="M413.734,152.157c-1.116,0-2.22-0.527-2.899-1.507c-1.115-1.595-0.728-3.793,0.861-4.912     l8.441-5.952c-0.236-0.225-0.437-0.488-0.606-0.776c-2.031-3.521,0.661-6.347,11.498-14.054     c-0.394-0.406-0.691-0.907-0.861-1.468c-0.339-1.143-0.078-2.377,0.691-3.287c1.177-1.398,2.384-2.832,3.566-4.251     c-8.685,5.049-9.072,4.946-10.376,4.606c-0.91-0.239-1.698-0.84-2.165-1.665c-0.819-1.422-0.546-3.226,0.661-4.345     c0.382-0.358,0.776-0.722,1.17-1.092c-0.388-0.288-0.716-0.651-0.964-1.073c-0.971-1.692-0.395-3.848,1.298-4.824     c0.327-0.188,0.673-0.318,1.024-0.391c1.322-0.658,5.494-3.178,8.908-5.333c0.807-0.513,1.789-0.673,2.729-0.443     c0.928,0.23,1.729,0.831,2.214,1.662c0.333,0.576,0.509,1.14,0.539,1.726c2.547-1.495,5.186-3.051,7.727-4.563     c0.818-0.482,1.782-0.616,2.698-0.376c0.91,0.236,1.692,0.834,2.165,1.649c1.116,1.929,1.043,2.747-3.184,8.047     c8.211-4.746,8.296-4.73,9.666-4.357c0.904,0.242,1.674,0.833,2.135,1.64c0.855,1.474,0.88,2.823-0.17,4.46l0.57-0.331     c1.632-0.946,3.724-0.434,4.736,1.158c1.025,1.592,0.612,3.699-0.934,4.788l-0.965,0.677c0.521,0.345,0.952,0.806,1.268,1.352     c0.977,1.689,0.395,3.851-1.291,4.827c-0.965,0.558-2.08,0.606-3.051,0.23c-5.179,1.337-26.986,15.034-45.095,27.55     C415.123,151.957,414.426,152.157,413.734,152.157z M428.258,108.069c0.152,0.143,0.291,0.3,0.419,0.473l0,0     C428.549,108.369,428.41,108.212,428.258,108.069z" style="fill:#F9AE75;"/></g><g><path d="M195.095,417.125c-0.364,0-0.697-0.037-1.028-0.115c-1.104-0.255-2.01-0.916-2.565-1.874     c-0.922-1.595-0.461-3.633,1.062-4.676c0.685-0.474,1.374-0.946,2.062-1.425c-0.218-0.14-0.427-0.315-0.615-0.51     c-1.219-1.273-1.316-3.25-0.225-4.633c0.874-1.104,1.771-2.256,2.653-3.415l-14.958,8.63c-1.686,0.982-3.848,0.395-4.824-1.298     c-0.506-0.873-0.682-1.619-0.531-2.358c-5.64,3.286-11.301,6.592-16.231,9.472c-1.556,0.91-3.547,0.504-4.621-0.952     c-1.073-1.443-0.882-3.475,0.446-4.699l4.646-4.275l-6.607,3.814c-1.689,0.977-3.848,0.395-4.821-1.292     c-0.355-0.612-0.576-1.231-0.634-1.868c-14.415,8.248-16.189,7.812-17.229,7.563c-1.025-0.255-1.874-0.885-2.396-1.789     c-1.349-2.334,0.285-4.045,1.601-5.409c0.412-0.442,0.931-0.97,1.534-1.595c-3.699,1.783-6.343,2.517-7.935,2.183     c-1.273-0.261-2.32-1.006-2.944-2.08c-0.54-0.939-0.612-1.771-0.413-2.511c-3.123,1.705-4.918,2.117-6.489,1.771     c-1.164-0.261-2.125-0.952-2.708-1.959c-0.167-0.297-0.288-0.594-0.367-0.903c-13.129,7.593-13.693,7.446-14.955,7.113     c-0.913-0.236-1.704-0.837-2.177-1.661c-0.846-1.468-0.527-3.336,0.764-4.445l11.013-9.425c-0.971,0.649-1.826,1.226-2.532,1.698     c-6.746,4.53-6.75,4.53-8.359,4.154c-0.892-0.212-1.674-0.758-2.168-1.522c-1.283,0.328-2.377,0.431-3.238,0.261     c-1.407-0.278-2.557-1.085-3.239-2.262c-0.027-0.049-0.054-0.091-0.082-0.146c-9.688,5.846-12.441,6.688-14.509,6.191     c-1.073-0.267-1.958-0.915-2.496-1.85c-0.903-1.559-1.825-3.159,4.485-9.679l-9.545,5.513c-1.601,0.916-3.626,0.461-4.669-1.049     c-5.055,2.607-7.92,3.335-9.879,2.88c-1.24-0.285-2.259-1.024-2.869-2.086c-0.558-0.958-0.797-1.898-0.667-2.881     c-1.431,0.461-3.06-0.042-3.966-1.34c-0.464-0.661-0.667-1.425-0.637-2.177l-5.101,2.947c-0.81,0.467-1.777,0.588-2.68,0.352     c-0.907-0.249-1.677-0.837-2.144-1.644c-1.255-2.171-0.755-4.148,2.256-6.998c-0.673-0.194-1.319-0.655-1.864-1.522     c-0.928-1.485-0.628-3.427,0.706-4.561c2.102-1.789,4.37-3.735,6.698-5.736c-6.531,3.771-9.934,5.621-11.862,6.482     c-0.13,0.073-0.2,0.121-0.206,0.128l-0.021-0.037c-1.728,0.752-2.171,0.637-2.762,0.485c-0.913-0.249-1.704-0.849-2.177-1.661     c-0.943-1.638-0.43-3.73,1.165-4.749c0.785-0.497,1.58-1.013,2.38-1.528c-0.437-0.309-0.815-0.697-1.079-1.164     c-0.977-1.692-0.397-3.851,1.292-4.827c0.449-0.255,0.937-0.406,1.425-0.455c2.732-1.183,14.297-8.12,24.448-14.481     c0.816-0.504,1.795-0.661,2.729-0.431c0.931,0.23,1.728,0.831,2.204,1.661c0.328,0.564,0.531,1.122,0.601,1.711     c2.741-1.619,5.367-3.178,7.741-4.585c0.81-0.485,1.783-0.625,2.698-0.382c0.91,0.236,1.692,0.837,2.165,1.649     c1.613,2.802-0.303,4.572-5.431,9.297c-0.018,0.018-0.036,0.03-0.058,0.054c3.399-1.965,6.477-3.735,8.836-5.094     c5.985-3.438,5.979-3.438,7.435-3.05c0.903,0.242,1.677,0.83,2.141,1.649c0.833,1.438,0.891,2.789-0.045,4.385l7.374-4.264     c1.634-0.94,3.724-0.431,4.736,1.152c0.179,0.272,0.313,0.563,0.4,0.854c1.692-0.424,2.486-0.254,3.163-0.097     c1.213,0.273,2.21,0.988,2.805,2.02c0.521,0.897,0.752,1.746,0.63,2.613c1.547-0.775,2.141-0.703,3.021-0.497     c0.952,0.225,1.819,0.855,2.308,1.704c0.743,1.286,0.588,2.856-0.297,3.973c0.597,0.254,1.128,0.679,1.519,1.261     c1.037,1.534,0.712,3.614-0.746,4.761c-5.84,4.572-12.02,9.612-17.396,14.179c4.012-2.529,8.029-5.124,11.304-7.235     c17.605-11.346,18.305-11.631,20.406-11.115c0.943,0.23,1.807,0.873,2.292,1.71c0.261,0.455,0.412,0.946,0.458,1.431     c0.546-0.157,1.128-0.193,1.692-0.078c0.949,0.193,1.78,0.764,2.295,1.57c3.271-1.504,5.015-1.74,6.337-1.432     c1.146,0.268,2.092,0.953,2.659,1.947c0.853,1.468,0.531,3.335-0.761,4.445l-9.127,7.811c3.09-1.831,6.055-3.584,8.706-5.154     c0.81-0.479,1.789-0.613,2.695-0.383c0.916,0.237,1.695,0.838,2.168,1.656c0.072,0.127,0.142,0.261,0.206,0.388     c8.514-5.761,11.671-7.217,14.188-6.665c1.155,0.255,2.113,0.946,2.689,1.953c0.861,1.492,0.524,3.384-0.804,4.481     c-0.261,0.219-0.521,0.431-0.791,0.655c1.364-0.516,2.95-0.151,3.941,1c1.204,1.407,1.122,3.5-0.194,4.804     c-3.323,3.311-7.393,7.368-11.319,11.298c9.512-5.64,21.522-13.093,32.744-20.298c0.813-0.515,1.804-0.685,2.744-0.454     c0.937,0.218,1.741,0.83,2.226,1.661c1.146,1.989,0.304,3.487-1.003,4.718c1.152-0.066,2.311,0.449,3.038,1.438     c1.067,1.455,0.874,3.469-0.452,4.694l-4.206,3.875c19.767-11.48,19.876-11.456,21.438-11.044     c0.907,0.237,1.689,0.838,2.156,1.656c0.789,1.358,0.734,2.426-0.018,3.56c0.976,0.182,1.868,0.776,2.405,1.704     c0.521,0.91,0.982,1.704,0.106,3.839c15.133-9.764,18.111-9.133,19.257-8.891c1.213,0.261,2.21,0.977,2.808,2.008     c0.067,0.115,0.13,0.236,0.188,0.357c4.906-2.874,7.42-3.663,9.33-3.227c1.128,0.255,2.062,0.922,2.644,1.88     c7.593-4.093,8.833-3.802,9.728-3.578c1.019,0.243,1.861,0.868,2.377,1.759c1.455,2.523,0.288,4.895-4.964,10.213     c5.14-3.026,10.353-6.125,14.634-8.69c1.492-0.892,3.414-0.563,4.523,0.765c1.116,1.327,1.098,3.274-0.042,4.591l-7.757,8.902     c4.258-2.887,8.806-6.204,12.051-8.569c12.856-9.388,15.895-11.353,18.702-10.746c1.092,0.23,2.038,0.916,2.59,1.868     c0.394,0.685,0.643,1.364,0.654,2.11c15.131-9.588,19.994-11.717,22.941-11.025c1.146,0.273,2.093,0.964,2.663,1.946     c0.357,0.637,0.582,1.256,0.618,1.893c22.365-13.172,24.445-12.675,26.168-12.256c1.062,0.255,1.94,0.903,2.474,1.831     c0.461,0.795,0.91,2.11,0.455,3.845c13.736-8.393,27.587-17.004,38.994-24.209c0.818-0.516,1.801-0.673,2.741-0.442     c0.928,0.23,1.728,0.831,2.207,1.661c0.637,1.11,0.722,2.184,0.352,3.27c0.055-0.03,0.115-0.067,0.17-0.098l3.348-1.916     c1.122-0.637,4.026-2.299,5.81,0.346c2.82-0.994,3.724-0.776,4.5-0.595c1.109,0.273,2.025,0.946,2.577,1.904     c0.479,0.831,0.601,1.844,0.34,2.766c-0.352,1.237-0.485,1.68-4.882,4.147c0.17,0.188,0.315,0.407,0.442,0.631     c1.68,2.887-0.267,5.713-3.614,8.672c1.564,3.057-1.383,5.537-6.18,9.601c-0.212,0.176-0.424,0.352-0.643,0.533     c0.503,0.304,0.939,0.728,1.255,1.273c0.971,1.681,0.395,3.845-1.298,4.821l-31.086,17.951c-1.625,0.934-3.692,0.442-4.724-1.128     c-0.673-1.025-0.746-2.299-0.272-3.36c-24.106,14.203-25.313,13.894-27.048,13.463c-0.922-0.236-1.807-0.885-2.286-1.716     c-0.34-0.595-0.497-1.141-0.527-1.638c-0.74,0.128-1.328,0.098-1.874-0.03c-1.049-0.255-1.929-0.903-2.456-1.819     c-0.182-0.303-0.357-0.686-0.485-1.128c-3.323,2.104-5.282,3.354-5.282,3.354c-1.643,1.043-3.814,0.558-4.869-1.079     c-0.176-0.285-0.315-0.576-0.406-0.886c-6.246,3.608-12.104,6.999-17.283,9.994c-0.807,0.467-1.777,0.601-2.681,0.358     c-0.904-0.243-1.68-0.837-2.147-1.65c-0.448-0.775-0.588-1.485-0.509-2.116c-3.008,1.141-3.869,0.928-4.627,0.74     c-1.056-0.255-1.923-0.91-2.456-1.825c-0.479-0.825-0.601-1.808-0.34-2.724c-2.729,1.741-5.458,3.476-8.15,5.216     c-0.807,0.521-1.802,0.686-2.735,0.461c-0.946-0.23-1.746-0.831-2.231-1.668c-0.855-1.479-0.667-2.802,0.182-4.087     c-15.039,9.764-17.777,11.007-20.167,10.448c-1.034-0.248-1.892-0.879-2.414-1.789c-0.776-1.376-0.6-2.48-0.055-3.365     c-0.315-0.019-0.616-0.055-0.907-0.115c-1.389-0.291-2.532-1.109-3.22-2.299c-0.752-1.31-0.595-2.947,0.394-4.087l3.19-3.669     c-18.924,11.164-19.534,11.007-20.974,10.631c-0.916-0.236-1.713-0.843-2.187-1.662c-1.737-3.008-0.048-4.706,9.412-13.572     c-6.389,3.869-13.803,8.521-20.771,13.015c-0.813,0.527-1.801,0.691-2.744,0.467c-0.937-0.23-1.747-0.831-2.231-1.667     c-0.067-0.128-0.131-0.243-0.185-0.358C201.023,415.227,197.494,417.125,195.095,417.125z M327.341,381.666     c-6.822,4.009-14.767,8.83-23.117,13.997C312.544,390.878,320.585,386.026,327.341,381.666z" style="fill:#E24F3F;"/></g><g><path d="M245.169,376.736c-0.321,0-0.604-0.049-0.897-0.115c-0.952-0.225-1.862-0.892-2.35-1.741     c-0.336-0.576-0.519-1.213-0.555-1.867c-1.276,0.072-2.544-0.559-3.241-1.729c-0.449-0.771-0.579-1.632-0.431-2.444     c-13.654,7.398-15.046,7.047-16.337,6.714c-1.003-0.249-1.837-0.88-2.347-1.753c-0.476-0.824-0.598-1.801-0.346-2.717     c0.233-0.837,0.339-1.207,1.977-2.256c-0.598-0.346-1.092-0.831-1.443-1.438c-0.152-0.267-0.303-0.576-0.431-0.939     c-1.228,0.77-1.901,1.188-1.901,1.188c-1.646,1.019-3.812,0.527-4.848-1.11c-0.179-0.278-0.31-0.569-0.4-0.867     c-5.04,2.911-9.791,5.658-14.133,8.175c-0.806,0.467-1.776,0.601-2.68,0.352c-0.904-0.236-1.674-0.83-2.144-1.644     c-0.833-1.437-0.6-2.625,0.046-3.577c-0.455,0-0.773-0.079-1.073-0.151c-1.064-0.262-1.944-0.916-2.475-1.838     c-0.437-0.758-0.579-1.638-0.397-2.492c-1.634,1.043-3.256,2.08-4.878,3.123c-0.813,0.521-1.804,0.691-2.741,0.461     c-0.94-0.23-1.744-0.831-2.223-1.668c-0.37-0.643-0.552-1.358-0.537-2.086c-9.039,5.343-13.078,6.877-15.349,6.331     c-1.131-0.267-2.059-0.946-2.62-1.917c-0.479-0.83-0.601-1.825-0.336-2.74c0.303-1.062,0.388-1.353,2.429-2.511     c-1.431-0.686-2.271-1.717-2.759-2.554c-0.934-1.625-0.446-3.687,1.11-4.718l10.822-7.149     c-22.766,12.947-23.73,12.698-25.122,12.334c-0.916-0.236-1.731-0.854-2.205-1.673c-0.576-0.995-0.712-2.178-0.4-3.342     c1.401-5.106,14.148-12.905,60.486-38.988c18.969-10.685,38.578-21.729,54.033-31.31c11.689-7.254,18.221-11.989,21.854-15.034     c-23.673,10.801-96.627,55.89-142.992,85.611c-0.597,0.382-1.282,0.6-1.989,0.558c-8.863,4.948-14.506,6.949-17.783,6.222     c-1.517-0.333-2.753-1.219-3.487-2.492c-0.473-0.818-0.597-1.795-0.343-2.705c0.249-0.915,0.861-1.691,1.689-2.146     c1.507-0.837,3.044-1.692,4.594-2.56c-0.537-0.284-1.006-0.715-1.349-1.267c-0.974-1.596-0.54-3.669,0.988-4.736     c0.14-0.104,5.552-3.888,14.303-9.879l-22.72,13.123c-0.813,0.467-1.777,0.588-2.681,0.352c-0.903-0.249-1.677-0.837-2.144-1.644     c-0.479-0.83-0.649-1.606-0.543-2.365c-4.288,2.518-8.49,4.979-12.574,7.368c-1.665,0.977-3.803,0.431-4.806-1.212     c-1-1.656-0.495-3.803,1.14-4.834l29.827-18.715L92.953,345.02c-0.81,0.473-1.777,0.6-2.684,0.357     c-0.637-0.17-1.21-0.516-1.655-0.994c-8.527,3.42-10.734,2.898-12.184,2.553c-1.837-0.437-2.792-1.516-3.271-2.347     c-1.704-2.953,0.952-4.815,3.296-6.452c0.761-0.528,1.71-1.184,2.847-1.947c-0.067-0.012-0.136-0.03-0.203-0.042     c-2.859-0.625-4.315-2.232-5.031-3.463c-0.943-1.644-0.576-2.93,0.376-4.039c-1.595-0.697-2.514-1.789-3.023-2.681     c-0.079-0.133-0.146-0.272-0.203-0.418c-8.168,4.27-8.963,4.069-10.076,3.771c-0.916-0.242-1.747-0.861-2.22-1.686     c-0.949-1.644-0.421-3.76,1.198-4.767l18.83-11.692c-1.034,0.104-1.904,0.115-2.647,0.085c-4.606,2.802-5.136,2.675-6.213,2.426     c-0.946-0.225-1.78-0.843-2.268-1.686c-0.409-0.71-0.804-1.649-0.977-2.808c-2.89,0.8-5.121,1.03-6.68,0.654     c-2.004-0.479-3.044-1.655-3.566-2.564c-0.567-0.982-1.11-2.62-0.473-4.858c0.382-1.321,0.961-3.335,4.918-7.398     c-0.321-0.261-0.604-0.576-0.825-0.952c-0.079-0.133-0.146-0.261-0.203-0.4c-2.313-0.764-3.56-2.195-4.212-3.329     c-0.676-1.17-1.319-3.099-0.549-5.67c0.713-2.384,2.756-5.088,6.019-8.114c0.209-0.437,0.512-0.837,0.907-1.164     c-0.606-0.304-1.125-0.771-1.486-1.395c-0.519-0.898-1.019-2.384-0.458-4.33c0.989-3.415,5.755-7.769,14.627-13.6     c-0.012-0.055-0.024-0.109-0.03-0.161c-0.209-1.389,0.421-2.765,1.61-3.511c7.784-4.912,16.501-10.443,25.534-16.22     c-11.08,6.156-11.807,5.965-12.962,5.665c-0.916-0.24-1.723-0.855-2.195-1.674c-0.482-0.831-0.604-1.819-0.34-2.741     c0.267-0.918,0.897-1.695,1.74-2.141c6.805-3.611,13.8-7.453,20.564-11.298c-0.709-0.315-1.34-0.864-1.722-1.528     c-0.977-1.686-0.394-3.848,1.292-4.821c0.558-0.321,1.167-0.476,1.765-0.476l0,0c4.227-1.634,25.865-14.558,45.131-26.598     c0.813-0.506,1.798-0.661,2.729-0.431c0.928,0.23,1.725,0.831,2.201,1.662c0.282,0.485,0.558,1.158,0.628,1.998     c9.727-5.743,19.285-11.404,27.805-16.471c0.81-0.485,1.783-0.625,2.696-0.385c0.916,0.239,1.695,0.833,2.168,1.652     c1.871,3.248-1.401,5.773-5.191,8.699c-0.612,0.467-1.289,0.979-2.032,1.534c7.18-4.145,13.651-7.875,18.958-10.925     c15.955-9.169,15.946-9.166,17.489-8.76c0.907,0.242,1.68,0.84,2.15,1.649c0.167,0.297,0.34,0.658,0.467,1.076     c20.395-9.976,25.209-8.92,27.684-8.378c2.568,0.564,3.875,2.02,4.521,3.139c0.264,0.461,0.53,1.073,0.646,1.819     c4.142-2.287,5.943-2.693,7.277-2.387c1.067,0.24,1.952,0.886,2.48,1.813c0.418,0.709,0.546,1.504,0.442,2.256     c1.358-0.127,2.735,0.534,3.433,1.807c0.939,1.686,0.346,3.809-1.322,4.77l-32.081,18.521     c8.269-4.318,15.843-8.239,22.408-11.617c18.806-11.58,24.519-14.024,27.332-13.351c1.092,0.264,2.002,0.931,2.547,1.877     c0.213,0.373,0.353,0.782,0.419,1.195c4.287-1.273,7.544-1.686,9.715-1.177c2.347,0.555,3.548,1.901,4.136,2.932     c0.952,1.65,0.425,3.76-1.188,4.767l-17.756,11.028c4.396-2.235,8.217-3.899,11.449-4.952c1.916-1.137,3.814-2.265,5.694-3.381     c0.813-0.479,1.789-0.616,2.692-0.376c0.916,0.239,1.692,0.831,2.171,1.649c0.315,0.546,0.625,1.231,0.825,2.05     c0.867,0.615,1.438,1.349,1.795,1.977c0.964,1.667,0.419,3.799-1.237,4.791c-0.667,0.406-1.353,0.822-2.037,1.234     c-1.432,2.671-4.536,6.744-12.22,13.135c0.024,1.131-0.497,2.25-1.486,2.954c-0.212,0.151-10.267,7.292-25.858,18.072     c6.107-3.145,11.528-5.982,15.731-8.263c6.04-3.921,9.545-6.219,9.685-6.304c0.807-0.53,1.801-0.706,2.753-0.479     c0.94,0.228,1.753,0.831,2.238,1.668c0.509,0.888,0.631,1.925,0.339,2.923c-0.484,1.637-1.716,2.968-11.273,8.181     c-0.97,0.631-2.001,1.304-3.099,2.014c0.794,0.249,1.51,0.779,1.983,1.549c0.988,1.649,0.473,3.79-1.158,4.818l-17.563,11.021     c16.773-9.53,17.174-9.43,18.727-9.021c0.909,0.24,1.698,0.843,2.171,1.659c1.989,3.454-1.364,5.655-7.453,9.651     c-0.576,0.379-1.194,0.779-1.855,1.204c0.248,0.23,0.454,0.495,0.631,0.795c0.424,0.736,0.83,1.85,0.709,3.305     c0.474,0.058,0.861,0.143,1.188,0.215c2.28,0.503,3.445,1.81,4.033,2.817c0.546,0.943,0.691,2.065,0.412,3.178     c0.771,0.562,1.279,1.222,1.607,1.792c0.164,0.276,0.279,0.573,0.363,0.876c0.183,0.037,0.353,0.073,0.516,0.115     c1.177,0.285,2.146,0.989,2.723,1.989c0.51,0.886,1.007,2.341,0.474,4.27c-0.612,2.238-2.887,4.985-6.714,8.278     c0.564,0.272,1.056,0.715,1.407,1.279c1.025,1.625,0.564,3.772-1.037,4.827l-1.376,0.903c2.237-0.873,3.826-1.091,5.069-0.824     c1.268,0.278,2.316,1.024,2.936,2.11c0.261,0.455,0.516,1.055,0.643,1.789c1.468-0.315,2.668-0.352,3.597-0.134     c1.37,0.321,2.486,1.134,3.146,2.274c0.637,1.109,0.789,2.443,0.431,3.76c-0.103,0.376-0.261,0.771-0.479,1.183     c0.006,0,0.018,0,0.018,0c1.128,0.278,2.063,0.964,2.614,1.922c0.297,0.528,0.601,1.231,0.716,2.11     c0.6-0.188,1.243-0.199,1.867-0.055c0.94,0.23,1.729,0.831,2.214,1.662c0.631,1.092,0.722,2.159,0.37,3.244     c1.194-0.685,2.268-1.31,3.231-1.855c6.514-3.741,6.502-3.741,7.951-3.359c0.491,0.14,0.945,0.37,1.328,0.691     c6.44-2.875,7.884-2.523,8.981-2.25c1.158,0.272,2.104,0.971,2.674,1.946c0.479,0.837,0.606,1.868,0.334,2.796     c0.546,0.364,1.007,0.843,1.34,1.419c0.267,0.467,0.527,1.11,0.601,1.929c0.516-0.321,1.031-0.637,1.534-0.952     c0.818-0.503,1.801-0.649,2.723-0.419c0.928,0.23,1.717,0.831,2.195,1.662c0.667,1.152,0.855,2.231,0.298,3.493     c31.946-20.037,51.413-29.964,58.751-28.267c2.171,0.51,3.306,1.789,3.863,2.766c1.935,3.342-1.547,5.762-4.615,7.896     c-0.612,0.424-1.298,0.885-2.067,1.395c1.055,0.588,1.703,1.383,2.08,2.043c0.515,0.886,0.606,1.668,0.461,2.359     c1.861-0.527,3.377-0.654,4.614-0.382c1.517,0.321,2.76,1.207,3.499,2.492c2.038,3.536,0.043,6.556-15.773,17.472     c-0.218,0.151-0.43,0.297-0.654,0.442c0.516,1.426,0.061,3.063-1.195,4.015l-9.848,7.447c1.328-0.255,2.753,0.279,3.577,1.468     c1.098,1.606,0.691,3.809-0.915,4.918c-0.109,0.066-10.601,7.259-21.571,14.215c-23.317,14.797-25.956,14.197-27.89,13.767     c-1.158-0.261-2.111-0.952-2.687-1.947c-0.897-1.54-0.498-3.511,0.928-4.578l2.607-1.978     c-30.383,17.787-31.517,17.483-33.245,17.047c-0.922-0.236-1.771-0.873-2.25-1.697c-0.188-0.34-0.327-0.704-0.394-1.067     c-1.013,0.121-1.893,0.097-2.681-0.073c-1.613-0.352-2.936-1.292-3.718-2.649c-0.934-1.607-0.454-3.67,1.098-4.706     c27.405-18.236,64.688-43.118,85.362-57.03c-0.552,0.279-1.122,0.559-1.716,0.855c-7.284,4.306-15.604,9.163-24.233,14.19     c-5.652,3.3-11.819,6.89-18.157,10.606c-2.619,1.662-5.36,3.415-8.211,5.258c-30.024,19.382-58.558,39.528-58.837,39.729     c-0.818,0.569-1.831,0.775-2.801,0.569c-0.971-0.212-1.808-0.83-2.305-1.686c-0.795-1.383-0.979-2.808,0.23-4.767     C249.766,375.299,246.9,376.736,245.169,376.736z M235.769,335.074c-11.404,6.979-23.518,14.523-35.589,22.158     c8.578-4.391,21.956-11.334,35.992-19.042c15.764-9.388,33.539-20.285,49.397-30.151c3.002-2.238,5.106-4.009,6.586-5.397     c-2.832,1.34-6.482,3.244-10.801,5.604C270.882,314.988,255.821,323.709,235.769,335.074z M234.022,316.311l-52.981,35.021     c3.129-1.697,6.877-3.881,11.358-6.683C204.965,336.814,220.068,326.208,234.022,316.311z M314.588,313.612     c-8.957,5.245-20.631,12.698-31.384,19.654C298.104,324.449,308.032,318.13,314.588,313.612z M92.65,324.818     c-2.286,1.443-4.309,2.724-6.037,3.839c2.189-0.563,5.088-1.504,8.917-3.032c0.919-0.582,1.865-1.194,2.841-1.813     c2.125-1.85,4.539-3.772,7.202-5.768C100.767,320.786,96.458,323.048,92.65,324.818z M384.691,311.077     c-1.959,1.273-4.015,2.638-6.119,4.069C380.738,313.721,382.787,312.356,384.691,311.077z M245.796,274.612     c-11.829,6.61-27.678,16.101-48.915,29.709c-1.519,0.977-3.042,1.953-4.551,2.929c1.273-0.733,2.55-1.467,3.82-2.213     C218.58,292.035,234.505,282.126,245.796,274.612z M70,296.262c-3.742,3.232-5.558,5.324-6.41,6.646     c0.779-0.14,1.816-0.418,3.205-0.892c0.03-0.121,0.067-0.255,0.103-0.376C67.228,300.531,67.698,298.961,70,296.262z      M154.376,278.208c-14.476,8.417-27.311,15.847-38.421,22.226c4.254-2.08,8.545-4.196,12.856-6.324     c6.756-4.154,14.13-8.666,22.114-13.548C152.068,279.785,153.221,278.996,154.376,278.208z M368.105,298.899     c0.013,0.279,0.006,0.57-0.024,0.88c1.462-0.771,2.832-1.479,4.124-2.129c4.585-2.717,8.848-5.27,12.511-7.508     C380.604,292.071,375.195,294.873,368.105,298.899z M152.366,261.471c-17.229,11.188-33.275,21.783-46.383,30.431     c-3.96,2.614-7.456,4.925-10.549,6.962c4.175-1.776,8.802-3.966,13.812-6.507l113.722-70.635     c5.206-3.563,10.382-7.129,15.516-10.704c-3.596,1.789-7.405,3.678-11.435,5.673c-6.434,3.187-13.039,6.458-19.73,9.785     c-4.812,2.984-9.664,6.019-14.527,9.084C178.312,244.912,164.804,253.59,152.366,261.471z M137.757,262.325     c-3.266,1.796-6.477,3.561-9.618,5.325c-15.861,8.902-27.253,15.991-35.371,21.644c5.755-3.202,12.556-7.15,20.598-11.972     C121.056,272.701,129.267,267.638,137.757,262.325z M61.973,286.855c0.185,0.146,0.871,0.528,2.866,0.315l104.107-63.321     c-0.115,0.058-0.237,0.118-0.358,0.179c-18.76,9.402-37.978,19.039-54.919,28.072L67.353,280.47     C62.662,284.43,62.025,286.243,61.973,286.855z M262.367,221.079c-11.665,7.062-23.56,14.272-35.404,21.465     c3.875-2.192,7.656-4.363,11.334-6.501C247.143,230.542,255.29,225.479,262.367,221.079z M234.766,222.707l-7.323,4.551     c1.541-0.904,3.069-1.804,4.603-2.708C232.961,223.932,233.868,223.316,234.766,222.707z M245.769,171.051     c-0.212,0.228-0.458,0.428-0.731,0.597l-54.955,33.654c12.735-6.461,24.476-12.547,34.349-18.023     c18.224-10.106,24.079-14.93,25.949-17.05C249.447,170.229,248.028,170.414,245.769,171.051z" style="fill:#F0915F;"/></g></g></g><g id="Layer_1"/></svg>